<svg xmlns="http://www.w3.org/2000/svg" viewBox="0 0 75.96 75.62"><defs><style>.cls-1{fill:#9a2526;}.cls-2{fill:#f7fcfd;opacity:0.2;}.cls-3{fill:#e5e6e6;}</style></defs><g id="Layer_2" data-name="Layer 2"><g id="Layer_1-2" data-name="Layer 1"><rect class="cls-1" x="0.16" width="75.64" height="75.62"/><polygon class="cls-2" points="0 48.72 0 0 75.96 0 75.96 11 0 48.72"/><path class="cls-3" d="M34.48,48.44A14.35,14.35,0,0,1,24.3,44.25,14.27,14.27,0,0,1,24.3,24a14.5,14.5,0,0,1,20.37,0h0A14.32,14.32,0,0,1,34.48,48.44Zm0-25.58a11.35,11.35,0,0,0-8,3.29,11.23,11.23,0,0,0,0,15.94,11.65,11.65,0,0,0,16,0,11.26,11.26,0,0,0-8-19.23Z"/><path class="cls-3" d="M54.76,55.81a1.55,1.55,0,0,1-1.08-.44l-8-7.93a1.52,1.52,0,0,1,0-2.16,1.55,1.55,0,0,1,2.17,0l8,7.93a1.52,1.52,0,0,1,0,2.16A1.56,1.56,0,0,1,54.76,55.81Z"/></g></g></svg>